<mxfile host="Electron" modified="2024-03-03T01:03:48.290Z" agent="Mozilla/5.0 (Windows NT 10.0; Win64; x64) AppleWebKit/537.36 (KHTML, like Gecko) draw.io/23.1.5 Chrome/120.0.6099.109 Electron/28.1.0 Safari/537.36" etag="D1xLaEB_M-7OBUzUXMSw" version="23.1.5" type="device">
  <diagram name="ページ1" id="LE8fIzdrHe0wcv1LTvfw">
    <mxGraphModel dx="2474" dy="1480" grid="1" gridSize="10" guides="1" tooltips="1" connect="1" arrows="1" fold="1" page="1" pageScale="1" pageWidth="1600" pageHeight="1200" math="0" shadow="0">
      <root>
        <mxCell id="0" />
        <mxCell id="cFaB45KztUIKXS-_cTrr-4" value="背景" style="locked=1;" parent="0" />
        <mxCell id="cFaB45KztUIKXS-_cTrr-8" value="" style="rounded=0;whiteSpace=wrap;html=1;" parent="cFaB45KztUIKXS-_cTrr-4" vertex="1">
          <mxGeometry x="843" y="677" width="120" height="60" as="geometry" />
        </mxCell>
        <mxCell id="cFaB45KztUIKXS-_cTrr-9" value="ウインドウ" style="locked=1;" parent="0" />
        <mxCell id="cFaB45KztUIKXS-_cTrr-10" value="" style="rounded=0;whiteSpace=wrap;html=1;strokeWidth=3;" parent="cFaB45KztUIKXS-_cTrr-9" vertex="1">
          <mxGeometry x="14" y="10" width="1572" height="1170" as="geometry" />
        </mxCell>
        <mxCell id="cFaB45KztUIKXS-_cTrr-11" value="" style="rounded=0;whiteSpace=wrap;html=1;fillColor=#B3B3B3;fontColor=#333333;strokeColor=#666666;" parent="cFaB45KztUIKXS-_cTrr-9" vertex="1">
          <mxGeometry x="12" y="15" width="1564" height="60" as="geometry" />
        </mxCell>
        <mxCell id="cFaB45KztUIKXS-_cTrr-12" value="&lt;font style=&quot;font-size: 48px;&quot;&gt;×&lt;/font&gt;" style="rounded=0;whiteSpace=wrap;html=1;" parent="cFaB45KztUIKXS-_cTrr-9" vertex="1">
          <mxGeometry x="1519" y="24" width="40" height="40" as="geometry" />
        </mxCell>
        <mxCell id="cFaB45KztUIKXS-_cTrr-14" value="名称未設定レイヤ" style="" parent="0" />
        <mxCell id="nhkmNDeqV5h7F6gIU1T0-50" value="" style="childLayout=tableLayout;recursiveResize=0;shadow=0;fillColor=none;" parent="cFaB45KztUIKXS-_cTrr-14" vertex="1">
          <mxGeometry x="100" y="100" width="1160" height="290" as="geometry" />
        </mxCell>
        <mxCell id="nhkmNDeqV5h7F6gIU1T0-51" value="" style="shape=tableRow;horizontal=0;startSize=0;swimlaneHead=0;swimlaneBody=0;top=0;left=0;bottom=0;right=0;dropTarget=0;collapsible=0;recursiveResize=0;expand=0;fontStyle=0;fillColor=none;strokeColor=inherit;" parent="nhkmNDeqV5h7F6gIU1T0-50" vertex="1">
          <mxGeometry width="1160" height="40" as="geometry" />
        </mxCell>
        <mxCell id="nhkmNDeqV5h7F6gIU1T0-52" value="" style="connectable=0;recursiveResize=0;strokeColor=inherit;fillColor=none;align=center;whiteSpace=wrap;html=1;" parent="nhkmNDeqV5h7F6gIU1T0-51" vertex="1">
          <mxGeometry width="80" height="40" as="geometry">
            <mxRectangle width="80" height="40" as="alternateBounds" />
          </mxGeometry>
        </mxCell>
        <mxCell id="nhkmNDeqV5h7F6gIU1T0-53" value="&lt;font style=&quot;font-size: 30px;&quot;&gt;名称&lt;/font&gt;" style="connectable=0;recursiveResize=0;strokeColor=inherit;fillColor=none;align=center;whiteSpace=wrap;html=1;" parent="nhkmNDeqV5h7F6gIU1T0-51" vertex="1">
          <mxGeometry x="80" width="190" height="40" as="geometry">
            <mxRectangle width="190" height="40" as="alternateBounds" />
          </mxGeometry>
        </mxCell>
        <mxCell id="nhkmNDeqV5h7F6gIU1T0-54" value="&lt;font style=&quot;font-size: 30px;&quot;&gt;状態&lt;/font&gt;" style="connectable=0;recursiveResize=0;strokeColor=inherit;fillColor=none;align=center;whiteSpace=wrap;html=1;" parent="nhkmNDeqV5h7F6gIU1T0-51" vertex="1">
          <mxGeometry x="270" width="170" height="40" as="geometry">
            <mxRectangle width="170" height="40" as="alternateBounds" />
          </mxGeometry>
        </mxCell>
        <mxCell id="nhkmNDeqV5h7F6gIU1T0-55" value="&lt;font style=&quot;font-size: 30px;&quot;&gt;サービスURL&lt;/font&gt;" style="connectable=0;recursiveResize=0;strokeColor=inherit;fillColor=none;align=center;whiteSpace=wrap;html=1;" parent="nhkmNDeqV5h7F6gIU1T0-51" vertex="1">
          <mxGeometry x="440" width="400" height="40" as="geometry">
            <mxRectangle width="400" height="40" as="alternateBounds" />
          </mxGeometry>
        </mxCell>
        <mxCell id="nhkmNDeqV5h7F6gIU1T0-56" value="&lt;font style=&quot;font-size: 30px;&quot;&gt;テストアカウント&lt;/font&gt;" style="connectable=0;recursiveResize=0;strokeColor=inherit;fillColor=none;align=center;whiteSpace=wrap;html=1;" parent="nhkmNDeqV5h7F6gIU1T0-51" vertex="1">
          <mxGeometry x="840" width="320" height="40" as="geometry">
            <mxRectangle width="320" height="40" as="alternateBounds" />
          </mxGeometry>
        </mxCell>
        <mxCell id="nhkmNDeqV5h7F6gIU1T0-57" style="shape=tableRow;horizontal=0;startSize=0;swimlaneHead=0;swimlaneBody=0;top=0;left=0;bottom=0;right=0;dropTarget=0;collapsible=0;recursiveResize=0;expand=0;fontStyle=0;fillColor=none;strokeColor=inherit;" parent="nhkmNDeqV5h7F6gIU1T0-50" vertex="1">
          <mxGeometry y="40" width="1160" height="50" as="geometry" />
        </mxCell>
        <mxCell id="nhkmNDeqV5h7F6gIU1T0-58" value="" style="connectable=0;recursiveResize=0;strokeColor=inherit;fillColor=none;align=center;whiteSpace=wrap;html=1;" parent="nhkmNDeqV5h7F6gIU1T0-57" vertex="1">
          <mxGeometry width="80" height="50" as="geometry">
            <mxRectangle width="80" height="50" as="alternateBounds" />
          </mxGeometry>
        </mxCell>
        <mxCell id="nhkmNDeqV5h7F6gIU1T0-59" value="&lt;font style=&quot;font-size: 30px;&quot;&gt;Ｘ&lt;/font&gt;" style="connectable=0;recursiveResize=0;strokeColor=inherit;fillColor=none;align=left;whiteSpace=wrap;html=1;" parent="nhkmNDeqV5h7F6gIU1T0-57" vertex="1">
          <mxGeometry x="80" width="190" height="50" as="geometry">
            <mxRectangle width="190" height="50" as="alternateBounds" />
          </mxGeometry>
        </mxCell>
        <mxCell id="nhkmNDeqV5h7F6gIU1T0-60" value="&lt;font style=&quot;font-size: 30px;&quot;&gt;稼働中&lt;/font&gt;" style="connectable=0;recursiveResize=0;strokeColor=inherit;fillColor=none;align=center;whiteSpace=wrap;html=1;" parent="nhkmNDeqV5h7F6gIU1T0-57" vertex="1">
          <mxGeometry x="270" width="170" height="50" as="geometry">
            <mxRectangle width="170" height="50" as="alternateBounds" />
          </mxGeometry>
        </mxCell>
        <mxCell id="nhkmNDeqV5h7F6gIU1T0-61" value="&lt;font style=&quot;font-size: 30px;&quot;&gt;http://www.twitter.com&lt;/font&gt;" style="connectable=0;recursiveResize=0;strokeColor=inherit;fillColor=none;align=left;whiteSpace=wrap;html=1;" parent="nhkmNDeqV5h7F6gIU1T0-57" vertex="1">
          <mxGeometry x="440" width="400" height="50" as="geometry">
            <mxRectangle width="400" height="50" as="alternateBounds" />
          </mxGeometry>
        </mxCell>
        <mxCell id="nhkmNDeqV5h7F6gIU1T0-62" value="&lt;font style=&quot;font-size: 30px;&quot;&gt;@fff_ggg&lt;/font&gt;" style="connectable=0;recursiveResize=0;strokeColor=inherit;fillColor=none;align=center;whiteSpace=wrap;html=1;" parent="nhkmNDeqV5h7F6gIU1T0-57" vertex="1">
          <mxGeometry x="840" width="320" height="50" as="geometry">
            <mxRectangle width="320" height="50" as="alternateBounds" />
          </mxGeometry>
        </mxCell>
        <mxCell id="nhkmNDeqV5h7F6gIU1T0-63" style="shape=tableRow;horizontal=0;startSize=0;swimlaneHead=0;swimlaneBody=0;top=0;left=0;bottom=0;right=0;dropTarget=0;collapsible=0;recursiveResize=0;expand=0;fontStyle=0;fillColor=none;strokeColor=inherit;" parent="nhkmNDeqV5h7F6gIU1T0-50" vertex="1">
          <mxGeometry y="90" width="1160" height="50" as="geometry" />
        </mxCell>
        <mxCell id="nhkmNDeqV5h7F6gIU1T0-64" value="" style="connectable=0;recursiveResize=0;strokeColor=inherit;fillColor=none;align=center;whiteSpace=wrap;html=1;" parent="nhkmNDeqV5h7F6gIU1T0-63" vertex="1">
          <mxGeometry width="80" height="50" as="geometry">
            <mxRectangle width="80" height="50" as="alternateBounds" />
          </mxGeometry>
        </mxCell>
        <mxCell id="nhkmNDeqV5h7F6gIU1T0-65" value="&lt;font style=&quot;font-size: 30px;&quot;&gt;Facebook&lt;/font&gt;" style="connectable=0;recursiveResize=0;strokeColor=inherit;fillColor=none;align=left;whiteSpace=wrap;html=1;" parent="nhkmNDeqV5h7F6gIU1T0-63" vertex="1">
          <mxGeometry x="80" width="190" height="50" as="geometry">
            <mxRectangle width="190" height="50" as="alternateBounds" />
          </mxGeometry>
        </mxCell>
        <mxCell id="nhkmNDeqV5h7F6gIU1T0-66" value="&lt;font style=&quot;font-size: 30px;&quot;&gt;稼働中&lt;/font&gt;" style="connectable=0;recursiveResize=0;strokeColor=inherit;fillColor=none;align=center;whiteSpace=wrap;html=1;" parent="nhkmNDeqV5h7F6gIU1T0-63" vertex="1">
          <mxGeometry x="270" width="170" height="50" as="geometry">
            <mxRectangle width="170" height="50" as="alternateBounds" />
          </mxGeometry>
        </mxCell>
        <mxCell id="nhkmNDeqV5h7F6gIU1T0-67" value="&lt;font style=&quot;font-size: 30px;&quot;&gt;https://www.facebook.com/&lt;/font&gt;" style="connectable=0;recursiveResize=0;strokeColor=inherit;fillColor=none;align=left;whiteSpace=wrap;html=1;" parent="nhkmNDeqV5h7F6gIU1T0-63" vertex="1">
          <mxGeometry x="440" width="400" height="50" as="geometry">
            <mxRectangle width="400" height="50" as="alternateBounds" />
          </mxGeometry>
        </mxCell>
        <mxCell id="nhkmNDeqV5h7F6gIU1T0-68" value="&lt;font style=&quot;font-size: 30px;&quot;&gt;@fff_ggg&lt;/font&gt;" style="connectable=0;recursiveResize=0;strokeColor=inherit;fillColor=none;align=center;whiteSpace=wrap;html=1;" parent="nhkmNDeqV5h7F6gIU1T0-63" vertex="1">
          <mxGeometry x="840" width="320" height="50" as="geometry">
            <mxRectangle width="320" height="50" as="alternateBounds" />
          </mxGeometry>
        </mxCell>
        <mxCell id="nhkmNDeqV5h7F6gIU1T0-69" style="shape=tableRow;horizontal=0;startSize=0;swimlaneHead=0;swimlaneBody=0;top=0;left=0;bottom=0;right=0;dropTarget=0;collapsible=0;recursiveResize=0;expand=0;fontStyle=0;fillColor=none;strokeColor=inherit;" parent="nhkmNDeqV5h7F6gIU1T0-50" vertex="1">
          <mxGeometry y="140" width="1160" height="50" as="geometry" />
        </mxCell>
        <mxCell id="nhkmNDeqV5h7F6gIU1T0-70" style="connectable=0;recursiveResize=0;strokeColor=inherit;fillColor=none;align=center;whiteSpace=wrap;html=1;" parent="nhkmNDeqV5h7F6gIU1T0-69" vertex="1">
          <mxGeometry width="80" height="50" as="geometry">
            <mxRectangle width="80" height="50" as="alternateBounds" />
          </mxGeometry>
        </mxCell>
        <mxCell id="nhkmNDeqV5h7F6gIU1T0-71" value="&lt;font style=&quot;font-size: 30px;&quot;&gt;LINE&lt;/font&gt;" style="connectable=0;recursiveResize=0;strokeColor=inherit;fillColor=none;align=left;whiteSpace=wrap;html=1;" parent="nhkmNDeqV5h7F6gIU1T0-69" vertex="1">
          <mxGeometry x="80" width="190" height="50" as="geometry">
            <mxRectangle width="190" height="50" as="alternateBounds" />
          </mxGeometry>
        </mxCell>
        <mxCell id="nhkmNDeqV5h7F6gIU1T0-72" value="&lt;font style=&quot;font-size: 30px;&quot;&gt;稼働中&lt;/font&gt;" style="connectable=0;recursiveResize=0;strokeColor=inherit;fillColor=none;align=center;whiteSpace=wrap;html=1;" parent="nhkmNDeqV5h7F6gIU1T0-69" vertex="1">
          <mxGeometry x="270" width="170" height="50" as="geometry">
            <mxRectangle width="170" height="50" as="alternateBounds" />
          </mxGeometry>
        </mxCell>
        <mxCell id="nhkmNDeqV5h7F6gIU1T0-73" value="&lt;div style=&quot;&quot;&gt;&lt;span style=&quot;font-size: 30px; background-color: initial;&quot;&gt;https://line.me/&lt;/span&gt;&lt;/div&gt;" style="connectable=0;recursiveResize=0;strokeColor=inherit;fillColor=none;align=left;whiteSpace=wrap;html=1;" parent="nhkmNDeqV5h7F6gIU1T0-69" vertex="1">
          <mxGeometry x="440" width="400" height="50" as="geometry">
            <mxRectangle width="400" height="50" as="alternateBounds" />
          </mxGeometry>
        </mxCell>
        <mxCell id="nhkmNDeqV5h7F6gIU1T0-74" value="&lt;font style=&quot;font-size: 30px;&quot;&gt;@fff_ggg&lt;/font&gt;" style="connectable=0;recursiveResize=0;strokeColor=inherit;fillColor=none;align=center;whiteSpace=wrap;html=1;" parent="nhkmNDeqV5h7F6gIU1T0-69" vertex="1">
          <mxGeometry x="840" width="320" height="50" as="geometry">
            <mxRectangle width="320" height="50" as="alternateBounds" />
          </mxGeometry>
        </mxCell>
        <mxCell id="nhkmNDeqV5h7F6gIU1T0-75" style="shape=tableRow;horizontal=0;startSize=0;swimlaneHead=0;swimlaneBody=0;top=0;left=0;bottom=0;right=0;dropTarget=0;collapsible=0;recursiveResize=0;expand=0;fontStyle=0;fillColor=none;strokeColor=inherit;" parent="nhkmNDeqV5h7F6gIU1T0-50" vertex="1">
          <mxGeometry y="190" width="1160" height="50" as="geometry" />
        </mxCell>
        <mxCell id="nhkmNDeqV5h7F6gIU1T0-76" style="connectable=0;recursiveResize=0;strokeColor=inherit;fillColor=none;align=center;whiteSpace=wrap;html=1;" parent="nhkmNDeqV5h7F6gIU1T0-75" vertex="1">
          <mxGeometry width="80" height="50" as="geometry">
            <mxRectangle width="80" height="50" as="alternateBounds" />
          </mxGeometry>
        </mxCell>
        <mxCell id="nhkmNDeqV5h7F6gIU1T0-77" value="&lt;font style=&quot;font-size: 30px;&quot;&gt;Instagram&lt;/font&gt;" style="connectable=0;recursiveResize=0;strokeColor=inherit;fillColor=none;align=left;whiteSpace=wrap;html=1;" parent="nhkmNDeqV5h7F6gIU1T0-75" vertex="1">
          <mxGeometry x="80" width="190" height="50" as="geometry">
            <mxRectangle width="190" height="50" as="alternateBounds" />
          </mxGeometry>
        </mxCell>
        <mxCell id="nhkmNDeqV5h7F6gIU1T0-78" value="&lt;font style=&quot;font-size: 30px;&quot;&gt;稼働中&lt;/font&gt;" style="connectable=0;recursiveResize=0;strokeColor=inherit;fillColor=none;align=center;whiteSpace=wrap;html=1;" parent="nhkmNDeqV5h7F6gIU1T0-75" vertex="1">
          <mxGeometry x="270" width="170" height="50" as="geometry">
            <mxRectangle width="170" height="50" as="alternateBounds" />
          </mxGeometry>
        </mxCell>
        <mxCell id="nhkmNDeqV5h7F6gIU1T0-79" value="&lt;font style=&quot;font-size: 30px;&quot;&gt;https://www.instagram.com/&lt;/font&gt;" style="connectable=0;recursiveResize=0;strokeColor=inherit;fillColor=none;align=left;whiteSpace=wrap;html=1;" parent="nhkmNDeqV5h7F6gIU1T0-75" vertex="1">
          <mxGeometry x="440" width="400" height="50" as="geometry">
            <mxRectangle width="400" height="50" as="alternateBounds" />
          </mxGeometry>
        </mxCell>
        <mxCell id="nhkmNDeqV5h7F6gIU1T0-80" value="&lt;font style=&quot;font-size: 30px;&quot;&gt;@fff_ggg&lt;/font&gt;" style="connectable=0;recursiveResize=0;strokeColor=inherit;fillColor=none;align=center;whiteSpace=wrap;html=1;" parent="nhkmNDeqV5h7F6gIU1T0-75" vertex="1">
          <mxGeometry x="840" width="320" height="50" as="geometry">
            <mxRectangle width="320" height="50" as="alternateBounds" />
          </mxGeometry>
        </mxCell>
        <mxCell id="nhkmNDeqV5h7F6gIU1T0-81" style="shape=tableRow;horizontal=0;startSize=0;swimlaneHead=0;swimlaneBody=0;top=0;left=0;bottom=0;right=0;dropTarget=0;collapsible=0;recursiveResize=0;expand=0;fontStyle=0;fillColor=none;strokeColor=inherit;" parent="nhkmNDeqV5h7F6gIU1T0-50" vertex="1">
          <mxGeometry y="240" width="1160" height="50" as="geometry" />
        </mxCell>
        <mxCell id="nhkmNDeqV5h7F6gIU1T0-82" style="connectable=0;recursiveResize=0;strokeColor=inherit;fillColor=none;align=center;whiteSpace=wrap;html=1;" parent="nhkmNDeqV5h7F6gIU1T0-81" vertex="1">
          <mxGeometry width="80" height="50" as="geometry">
            <mxRectangle width="80" height="50" as="alternateBounds" />
          </mxGeometry>
        </mxCell>
        <mxCell id="nhkmNDeqV5h7F6gIU1T0-83" value="&lt;font style=&quot;font-size: 30px;&quot;&gt;謎のSNS&lt;/font&gt;" style="connectable=0;recursiveResize=0;strokeColor=inherit;fillColor=none;align=left;whiteSpace=wrap;html=1;" parent="nhkmNDeqV5h7F6gIU1T0-81" vertex="1">
          <mxGeometry x="80" width="190" height="50" as="geometry">
            <mxRectangle width="190" height="50" as="alternateBounds" />
          </mxGeometry>
        </mxCell>
        <mxCell id="nhkmNDeqV5h7F6gIU1T0-84" value="&lt;font style=&quot;font-size: 30px;&quot;&gt;承認待ち&lt;/font&gt;" style="connectable=0;recursiveResize=0;strokeColor=inherit;fillColor=none;align=center;whiteSpace=wrap;html=1;" parent="nhkmNDeqV5h7F6gIU1T0-81" vertex="1">
          <mxGeometry x="270" width="170" height="50" as="geometry">
            <mxRectangle width="170" height="50" as="alternateBounds" />
          </mxGeometry>
        </mxCell>
        <mxCell id="nhkmNDeqV5h7F6gIU1T0-85" value="&lt;font style=&quot;font-size: 30px;&quot;&gt;https://www.nazosns.com/&lt;/font&gt;" style="connectable=0;recursiveResize=0;strokeColor=inherit;fillColor=none;align=left;whiteSpace=wrap;html=1;" parent="nhkmNDeqV5h7F6gIU1T0-81" vertex="1">
          <mxGeometry x="440" width="400" height="50" as="geometry">
            <mxRectangle width="400" height="50" as="alternateBounds" />
          </mxGeometry>
        </mxCell>
        <mxCell id="nhkmNDeqV5h7F6gIU1T0-86" value="&lt;font style=&quot;font-size: 30px;&quot;&gt;@fff_ggg&lt;/font&gt;" style="connectable=0;recursiveResize=0;strokeColor=inherit;fillColor=none;align=center;whiteSpace=wrap;html=1;" parent="nhkmNDeqV5h7F6gIU1T0-81" vertex="1">
          <mxGeometry x="840" width="320" height="50" as="geometry">
            <mxRectangle width="320" height="50" as="alternateBounds" />
          </mxGeometry>
        </mxCell>
        <mxCell id="nhkmNDeqV5h7F6gIU1T0-87" value="&lt;font style=&quot;font-size: 84px;&quot;&gt;○&lt;/font&gt;" style="text;html=1;strokeColor=none;fillColor=none;align=center;verticalAlign=middle;whiteSpace=wrap;rounded=0;fontSize=60;" parent="cFaB45KztUIKXS-_cTrr-14" vertex="1">
          <mxGeometry x="106" y="146" width="60" height="30" as="geometry" />
        </mxCell>
        <mxCell id="nhkmNDeqV5h7F6gIU1T0-88" value="&lt;font style=&quot;font-size: 48px;&quot;&gt;●&lt;/font&gt;" style="text;html=1;strokeColor=none;fillColor=none;align=center;verticalAlign=middle;whiteSpace=wrap;rounded=0;fontSize=48;" parent="cFaB45KztUIKXS-_cTrr-14" vertex="1">
          <mxGeometry x="106" y="148" width="60" height="30" as="geometry" />
        </mxCell>
        <mxCell id="nhkmNDeqV5h7F6gIU1T0-91" value="&lt;font style=&quot;font-size: 84px;&quot;&gt;○&lt;/font&gt;" style="text;html=1;strokeColor=none;fillColor=none;align=center;verticalAlign=middle;whiteSpace=wrap;rounded=0;fontSize=60;" parent="cFaB45KztUIKXS-_cTrr-14" vertex="1">
          <mxGeometry x="105" y="196" width="60" height="30" as="geometry" />
        </mxCell>
        <mxCell id="nhkmNDeqV5h7F6gIU1T0-92" value="&lt;font style=&quot;font-size: 84px;&quot;&gt;○&lt;/font&gt;" style="text;html=1;strokeColor=none;fillColor=none;align=center;verticalAlign=middle;whiteSpace=wrap;rounded=0;fontSize=60;" parent="cFaB45KztUIKXS-_cTrr-14" vertex="1">
          <mxGeometry x="105" y="246" width="60" height="30" as="geometry" />
        </mxCell>
        <mxCell id="nhkmNDeqV5h7F6gIU1T0-93" value="&lt;font style=&quot;font-size: 84px;&quot;&gt;○&lt;/font&gt;" style="text;html=1;strokeColor=none;fillColor=none;align=center;verticalAlign=middle;whiteSpace=wrap;rounded=0;fontSize=60;" parent="cFaB45KztUIKXS-_cTrr-14" vertex="1">
          <mxGeometry x="105" y="296" width="60" height="30" as="geometry" />
        </mxCell>
        <mxCell id="nhkmNDeqV5h7F6gIU1T0-94" value="&lt;font style=&quot;font-size: 84px;&quot;&gt;○&lt;/font&gt;" style="text;html=1;strokeColor=none;fillColor=none;align=center;verticalAlign=middle;whiteSpace=wrap;rounded=0;fontSize=60;" parent="cFaB45KztUIKXS-_cTrr-14" vertex="1">
          <mxGeometry x="105" y="346" width="60" height="30" as="geometry" />
        </mxCell>
      </root>
    </mxGraphModel>
  </diagram>
</mxfile>
